<svg xmlns="http://www.w3.org/2000/svg" xmlns:xlink="http://www.w3.org/1999/xlink" width="950" height="363.94"><rect width="950" height="363.94" rx="5" ry="5" class="a"/><svg y="0%" x="0%"><circle cx="20" cy="20" r="6" fill="#ff5f58"/><circle cx="40" cy="20" r="6" fill="#ffbd2e"/><circle cx="60" cy="20" r="6" fill="#18c132"/></svg><svg height="303.94" viewBox="0 0 91 30.394" width="910" x="15" xmlns="http://www.w3.org/2000/svg" xmlns:xlink="http://www.w3.org/1999/xlink" y="50"><style>@keyframes p{0%{transform:translateX(0)}5.19%{transform:translateX(-91px)}5.38%{transform:translateX(-182px)}6.49%{transform:translateX(-273px)}10.75%{transform:translateX(-364px)}10.79%{transform:translateX(-455px)}10.91%{transform:translateX(-546px)}18.19%{transform:translateX(-637px)}19.39%{transform:translateX(-728px)}20.01%{transform:translateX(-819px)}22.93%{transform:translateX(-910px)}23.51%{transform:translateX(-1001px)}23.95%{transform:translateX(-1092px)}25.02%{transform:translateX(-1183px)}25.68%{transform:translateX(-1274px)}27.76%{transform:translateX(-1365px)}30.58%{transform:translateX(-1456px)}31.7%{transform:translateX(-1547px)}31.71%{transform:translateX(-1820px)}39.51%{transform:translateX(-1911px)}39.52%{transform:translateX(-2093px)}39.73%{transform:translateX(-2548px)}48.24%{transform:translateX(-2730px)}54.62%{transform:translateX(-2821px)}57.1%{transform:translateX(-2912px)}57.11%{transform:translateX(-3094px)}57.14%{transform:translateX(-3276px)}57.15%{transform:translateX(-3640px)}70.88%{transform:translateX(-3822px)}70.89%{transform:translateX(-4004px)}71.36%{transform:translateX(-4095px)}79.04%{transform:translateX(-4186px)}79.7%{transform:translateX(-4277px)}83.38%{transform:translateX(-4368px)}83.43%{transform:translateX(-4459px)}83.56%{transform:translateX(-4550px)}to{transform:translateX(-4641px)}}.a{fill:#000}.f{fill:#005fff}.g{fill:#00afff}.h{fill:#00d7ff}.i{fill:#fff}.j{text-decoration:underline}.j,.k{fill:gray;font-weight:700}.l{fill:#c0f}.m{fill:#3f0}</style><g font-size="1.67" font-family="Monaco,Consolas,Menlo,'Bitstream Vera Sans Mono','Powerline Symbols',monospace"><defs><symbol id="1"><text y="1.67" class="f">jkwill87</text><text x="8.016" y="1.67" class="g">%bmo</text><text x="12.024" y="1.67" class="h">:Downloads</text><text x="23.046" y="1.67" class="i">$</text></symbol><symbol id="2"><text y="1.67" class="f">jkwill87</text><text x="8.016" y="1.67" class="g">%bmo</text><text x="12.024" y="1.67" class="h">:Downloads</text><text x="23.046" y="1.67" class="i">$</text><text x="25.05" y="1.67" class="i">l</text></symbol><symbol id="3"><text y="1.67" class="f">jkwill87</text><text x="8.016" y="1.67" class="g">%bmo</text><text x="12.024" y="1.67" class="h">:Downloads</text><text x="23.046" y="1.67" class="i">$</text><text x="25.05" y="1.67" class="i">ls</text></symbol><symbol id="4"><text y="1.67" class="i">avengers-sample.mp4</text><text x="21.042" y="1.67" class="i">avengers.mp4</text><text x="35.07" y="1.67" class="i">game.of.thrones.01x05.mp4</text><text x="62.124" y="1.67" class="i">homework.txt</text><text x="76.152" y="1.67" class="i">shrek.avi</text></symbol><symbol id="5"><text y="1.67" class="f">jkwill87</text><text x="8.016" y="1.67" class="g">%bmo</text><text x="12.024" y="1.67" class="h">:Downloads</text><text x="23.046" y="1.67" class="i">$</text><text x="25.05" y="1.67" class="i">mnamer</text></symbol><symbol id="6"><text y="1.67" class="f">jkwill87</text><text x="8.016" y="1.67" class="g">%bmo</text><text x="12.024" y="1.67" class="h">:Downloads</text><text x="23.046" y="1.67" class="i">$</text><text x="25.05" y="1.67" class="i">mnamer</text><text x="32.064" y="1.67" class="i">.</text></symbol><symbol id="7"><text y="1.67" class="j">Starting</text><text x="9.018" y="1.67" class="j">mnamer</text></symbol><symbol id="8"><text y="1.67" class="k">Processing</text><text x="11.022" y="1.67" class="k">Television</text><text x="22.044" y="1.67" class="k">&quot;game.of.thrones.01x05&quot;</text></symbol><symbol id="9"><text x="1.002" y="1.67" class="l">❱</text><text x="3.006" y="1.67" class="i">Game</text><text x="8.016" y="1.67" class="i">of</text><text x="11.022" y="1.67" class="i">Thrones</text><text x="19.038" y="1.67" class="i">-</text><text x="21.042" y="1.67" class="i">01x05</text><text x="27.054" y="1.67" class="i">-</text><text x="29.058" y="1.67" class="i">The</text><text x="33.066" y="1.67" class="i">Wolf</text><text x="38.076" y="1.67" class="i">and</text><text x="42.084" y="1.67" class="i">The</text><text x="46.092" y="1.67" class="i">Lion</text></symbol><symbol id="10"><text x="3.006" y="1.67" class="i">Game</text><text x="8.016" y="1.67" class="i">of</text><text x="11.022" y="1.67" class="i">Thrones:</text><text x="20.04" y="1.67" class="i">Cartoon</text><text x="28.056" y="1.67" class="i">Parody</text><text x="35.07" y="1.67" class="i">-</text><text x="37.074" y="1.67" class="i">01x05</text><text x="43.086" y="1.67" class="i">-</text><text x="45.09" y="1.67" class="i">Episode</text><text x="53.106" y="1.67" class="i">5</text></symbol><symbol id="11"><text x="3.006" y="1.67" class="i">Tribe</text><text x="9.018" y="1.67" class="i">of</text><text x="12.024" y="1.67" class="i">Hip</text><text x="16.032" y="1.67" class="i">Hop</text><text x="20.04" y="1.67" class="i">-</text><text x="22.044" y="1.67" class="i">01x05</text><text x="28.056" y="1.67" class="i">-</text><text x="30.06" y="1.67" class="i">Episode</text><text x="38.076" y="1.67" class="i">5</text></symbol><symbol id="12"><text x="3.006" y="1.67" class="i">[s]kip</text></symbol><symbol id="13"><text x="3.006" y="1.67" class="i">[q]uit</text></symbol><symbol id="14"><text x="1.002" y="1.67" class="i">-</text><text x="3.006" y="1.67" class="i">moving</text><text x="10.02" y="1.67" class="i">to</text><text x="13.026" y="1.67" class="i">/Users/jkwill87/Downloads/Game</text><text x="44.088" y="1.67" class="i">of</text><text x="47.094" y="1.67" class="i">Thrones</text><text x="55.11" y="1.67" class="i">-</text><text x="57.114" y="1.67" class="i">S01E05</text><text x="64.128" y="1.67" class="i">-</text><text x="66.132" y="1.67" class="i">The</text><text x="70.14" y="1.67" class="i">Wolf</text><text x="75.15" y="1.67" class="i">and</text><text x="79.158" y="1.67" class="i">The</text><text x="83.166" y="1.67" class="i">Lion.mp4</text></symbol><symbol id="15"><text x="1.002" y="1.67" class="m">-</text><text x="3.006" y="1.67" class="m">OK!</text></symbol><symbol id="16"><text y="1.67" class="k">Processing</text><text x="11.022" y="1.67" class="k">Movie</text><text x="17.034" y="1.67" class="k">&quot;shrek&quot;</text></symbol><symbol id="17"><text x="1.002" y="1.67" class="l">❱</text><text x="3.006" y="1.67" class="i">Shrek</text><text x="9.018" y="1.67" class="i">(2001)</text></symbol><symbol id="18"><text x="3.006" y="1.67" class="i">Shrek</text><text x="9.018" y="1.67" class="i">2</text><text x="11.022" y="1.67" class="i">(2004)</text></symbol><symbol id="19"><text x="3.006" y="1.67" class="i">Shrek</text><text x="9.018" y="1.67" class="i">the</text><text x="13.026" y="1.67" class="i">Third</text><text x="19.038" y="1.67" class="i">(2007)</text></symbol><symbol id="20"><text x="3.006" y="1.67" class="i">Shrek</text><text x="9.018" y="1.67" class="i">Forever</text><text x="17.034" y="1.67" class="i">After</text><text x="23.046" y="1.67" class="i">(2010)</text></symbol><symbol id="21"><text x="3.006" y="1.67" class="i">Shrek</text><text x="9.018" y="1.67" class="i">the</text><text x="13.026" y="1.67" class="i">Halls</text><text x="19.038" y="1.67" class="i">(2007)</text></symbol><symbol id="22"><text x="3.006" y="1.67" class="i">Shrek</text><text x="9.018" y="1.67" class="i">(2001)</text></symbol><symbol id="23"><text x="1.002" y="1.67" class="l">❱</text><text x="3.006" y="1.67" class="i">Shrek</text><text x="9.018" y="1.67" class="i">the</text><text x="13.026" y="1.67" class="i">Third</text><text x="19.038" y="1.67" class="i">(2007)</text></symbol><symbol id="24"><text x="1.002" y="1.67" class="i">-</text><text x="3.006" y="1.67" class="i">moving</text><text x="10.02" y="1.67" class="i">to</text><text x="13.026" y="1.67" class="i">/Users/jkwill87/Downloads/Shrek</text><text x="45.09" y="1.67" class="i">the</text><text x="49.098" y="1.67" class="i">Third</text><text x="55.11" y="1.67" class="i">(2007).avi</text></symbol><symbol id="25"><text y="1.67" class="k">Processing</text><text x="11.022" y="1.67" class="k">Movie</text><text x="17.034" y="1.67" class="k">&quot;avengers&quot;</text></symbol><symbol id="26"><text x="1.002" y="1.67" class="l">❱</text><text x="3.006" y="1.67" class="i">Avengers:</text><text x="13.026" y="1.67" class="i">Infinity</text><text x="22.044" y="1.67" class="i">War</text><text x="26.052" y="1.67" class="i">(2018)</text></symbol><symbol id="27"><text x="3.006" y="1.67" class="i">The</text><text x="7.014" y="1.67" class="i">Avengers</text><text x="16.032" y="1.67" class="i">(2012)</text></symbol><symbol id="28"><text x="3.006" y="1.67" class="i">Avengers:</text><text x="13.026" y="1.67" class="i">Age</text><text x="17.034" y="1.67" class="i">of</text><text x="20.04" y="1.67" class="i">Ultron</text><text x="27.054" y="1.67" class="i">(2015)</text></symbol><symbol id="29"><text x="3.006" y="1.67" class="i">Untitled</text><text x="12.024" y="1.67" class="i">Avengers</text><text x="21.042" y="1.67" class="i">Movie</text><text x="27.054" y="1.67" class="i">(2019)</text></symbol><symbol id="30"><text x="3.006" y="1.67" class="i">The</text><text x="7.014" y="1.67" class="i">Avengers</text><text x="16.032" y="1.67" class="i">(1998)</text></symbol><symbol id="31"><text x="1.002" y="1.67" class="i">-</text><text x="3.006" y="1.67" class="i">moving</text><text x="10.02" y="1.67" class="i">to</text><text x="13.026" y="1.67" class="i">/Users/jkwill87/Downloads/Avengers</text><text x="48.096" y="1.67" class="i">Infinity</text><text x="57.114" y="1.67" class="i">War</text><text x="61.122" y="1.67" class="i">(2018).mp4</text></symbol><symbol id="32"><text y="1.67" class="m">3</text><text x="2.004" y="1.67" class="m">out</text><text x="6.012" y="1.67" class="m">of</text><text x="9.018" y="1.67" class="m">3</text><text x="11.022" y="1.67" class="m">files</text><text x="17.034" y="1.67" class="m">moved</text><text x="23.046" y="1.67" class="m">successfully</text></symbol><symbol id="33"><text y="1.67" class="i">Avengers</text><text x="9.018" y="1.67" class="i">Infinity</text><text x="18.036" y="1.67" class="i">War</text><text x="22.044" y="1.67" class="i">(2018).mp4</text><text x="54.108" y="1.67" class="i">avengers-sample.mp4</text></symbol><symbol id="34"><text y="1.67" class="i">Game</text><text x="5.01" y="1.67" class="i">of</text><text x="8.016" y="1.67" class="i">Thrones</text><text x="16.032" y="1.67" class="i">-</text><text x="18.036" y="1.67" class="i">S01E05</text><text x="25.05" y="1.67" class="i">-</text><text x="27.054" y="1.67" class="i">The</text><text x="31.062" y="1.67" class="i">Wolf</text><text x="36.072" y="1.67" class="i">and</text><text x="40.08" y="1.67" class="i">The</text><text x="44.088" y="1.67" class="i">Lion.mp4</text><text x="54.108" y="1.67" class="i">homework.txt</text></symbol><symbol id="35"><text y="1.67" class="i">Shrek</text><text x="6.012" y="1.67" class="i">the</text><text x="10.02" y="1.67" class="i">Third</text><text x="16.032" y="1.67" class="i">(2007).avi</text></symbol><symbol id="a"><path fill="transparent" d="M0 0h91v14H0z"/></symbol><symbol id="b"><path fill="#f81ce5" d="M0 0h1.102v2.171H0z"/></symbol></defs><path class="a" d="M0 0h91v30.394H0z"/><g style="animation-duration:18.052472s;animation-iteration-count:infinite;animation-name:p;animation-timing-function:steps(1,end)"><svg width="4732"><svg><use xlink:href="#a"/><use xlink:href="#b" x="-.004"/></svg><svg x="91"><use xlink:href="#a"/><use xlink:href="#b" x="24.996"/><use xlink:href="#1"/></svg><svg x="182"><use xlink:href="#a"/><use xlink:href="#b" x="25.996"/><use xlink:href="#2"/></svg><svg x="273"><use xlink:href="#a"/><use xlink:href="#b" x="26.996"/><use xlink:href="#3"/></svg><svg x="364"><use xlink:href="#a"/><use xlink:href="#b" x="-.004" y="2.146"/><use xlink:href="#3"/></svg><svg x="455"><use xlink:href="#a"/><use xlink:href="#b" x="-.004" y="4.317"/><use xlink:href="#3"/><use xlink:href="#4" y="2.171"/></svg><svg x="546"><use xlink:href="#a"/><use xlink:href="#b" x="24.996" y="4.317"/><use xlink:href="#3"/><use xlink:href="#4" y="2.171"/><use xlink:href="#1" y="4.342"/></svg><svg x="637"><use xlink:href="#a"/><use xlink:href="#b" x="25.996" y="4.317"/><use xlink:href="#3"/><use xlink:href="#4" y="2.171"/><text y="6.012" class="f">jkwill87</text><text x="8.016" y="6.012" class="g">%bmo</text><text x="12.024" y="6.012" class="h">:Downloads</text><text x="23.046" y="6.012" class="i">$</text><text x="25.05" y="6.012" class="i">m</text></svg><svg x="728"><use xlink:href="#a"/><use xlink:href="#b" x="26.996" y="4.317"/><use xlink:href="#3"/><use xlink:href="#4" y="2.171"/><text y="6.012" class="f">jkwill87</text><text x="8.016" y="6.012" class="g">%bmo</text><text x="12.024" y="6.012" class="h">:Downloads</text><text x="23.046" y="6.012" class="i">$</text><text x="25.05" y="6.012" class="i">mn</text></svg><svg x="819"><use xlink:href="#a"/><use xlink:href="#b" x="27.996" y="4.317"/><use xlink:href="#3"/><use xlink:href="#4" y="2.171"/><text y="6.012" class="f">jkwill87</text><text x="8.016" y="6.012" class="g">%bmo</text><text x="12.024" y="6.012" class="h">:Downloads</text><text x="23.046" y="6.012" class="i">$</text><text x="25.05" y="6.012" class="i">mna</text></svg><svg x="910"><use xlink:href="#a"/><use xlink:href="#b" x="28.996" y="4.317"/><use xlink:href="#3"/><use xlink:href="#4" y="2.171"/><text y="6.012" class="f">jkwill87</text><text x="8.016" y="6.012" class="g">%bmo</text><text x="12.024" y="6.012" class="h">:Downloads</text><text x="23.046" y="6.012" class="i">$</text><text x="25.05" y="6.012" class="i">mnam</text></svg><svg x="1001"><use xlink:href="#a"/><use xlink:href="#b" x="29.996" y="4.317"/><use xlink:href="#3"/><use xlink:href="#4" y="2.171"/><text y="6.012" class="f">jkwill87</text><text x="8.016" y="6.012" class="g">%bmo</text><text x="12.024" y="6.012" class="h">:Downloads</text><text x="23.046" y="6.012" class="i">$</text><text x="25.05" y="6.012" class="i">mname</text></svg><svg x="1092"><use xlink:href="#a"/><use xlink:href="#b" x="30.996" y="4.317"/><use xlink:href="#3"/><use xlink:href="#4" y="2.171"/><use xlink:href="#5" y="4.342"/></svg><svg x="1183"><use xlink:href="#a"/><use xlink:href="#b" x="31.996" y="4.317"/><use xlink:href="#3"/><use xlink:href="#4" y="2.171"/><use xlink:href="#5" y="4.342"/></svg><svg x="1274"><use xlink:href="#a"/><use xlink:href="#b" x="32.996" y="4.317"/><use xlink:href="#3"/><use xlink:href="#4" y="2.171"/><use xlink:href="#6" y="4.342"/></svg><svg x="1365"><use xlink:href="#a"/><use xlink:href="#b" x="-.004" y="6.488"/><use xlink:href="#3"/><use xlink:href="#4" y="2.171"/><use xlink:href="#6" y="4.342"/></svg><svg x="1456"><use xlink:href="#a"/><use xlink:href="#b" x="-.004" y="10.83"/><use xlink:href="#3"/><use xlink:href="#4" y="2.171"/><use xlink:href="#6" y="4.342"/><use xlink:href="#7" y="6.513"/></svg><svg x="1547"><use xlink:href="#a"/><use xlink:href="#3"/><use xlink:href="#4" y="2.171"/><use xlink:href="#6" y="4.342"/><use xlink:href="#7" y="6.513"/><use xlink:href="#8" y="10.855"/></svg><svg x="1638"><use xlink:href="#a"/><use xlink:href="#3"/><use xlink:href="#4" y="2.171"/><use xlink:href="#6" y="4.342"/><use xlink:href="#7" y="6.513"/><use xlink:href="#8" y="10.855"/><use xlink:href="#9" y="13.026"/></svg><svg x="1729"><use xlink:href="#a"/><use xlink:href="#3"/><use xlink:href="#4" y="2.171"/><use xlink:href="#6" y="4.342"/><use xlink:href="#7" y="6.513"/><use xlink:href="#8" y="10.855"/><use xlink:href="#9" y="13.026"/><use xlink:href="#10" y="15.197"/></svg><svg x="1820"><use xlink:href="#a"/><use xlink:href="#3"/><use xlink:href="#4" y="2.171"/><use xlink:href="#6" y="4.342"/><use xlink:href="#7" y="6.513"/><use xlink:href="#8" y="10.855"/><use xlink:href="#9" y="13.026"/><use xlink:href="#10" y="15.197"/><use xlink:href="#11" y="17.368"/><use xlink:href="#12" y="19.539"/><use xlink:href="#13" y="21.71"/></svg><svg x="1911"><use xlink:href="#a"/><use xlink:href="#3"/><use xlink:href="#4" y="2.171"/><use xlink:href="#6" y="4.342"/><use xlink:href="#7" y="6.513"/><use xlink:href="#8" y="10.855"/><use xlink:href="#9" y="13.026"/><use xlink:href="#10" y="15.197"/><use xlink:href="#11" y="17.368"/><use xlink:href="#12" y="19.539"/><use xlink:href="#13" y="21.71"/></svg><svg x="2002"><use xlink:href="#a"/><use xlink:href="#b" x="-.004" y="26.027"/><use xlink:href="#3"/><use xlink:href="#4" y="2.171"/><use xlink:href="#6" y="4.342"/><use xlink:href="#7" y="6.513"/><use xlink:href="#8" y="10.855"/><use xlink:href="#9" y="13.026"/><use xlink:href="#10" y="15.197"/><use xlink:href="#11" y="17.368"/><use xlink:href="#12" y="19.539"/><use xlink:href="#13" y="21.71"/><use xlink:href="#14" y="23.881"/></svg><svg x="2093"><use xlink:href="#a"/><use xlink:href="#b" x="-.004" y="28.198"/><use xlink:href="#4"/><use xlink:href="#6" y="2.171"/><use xlink:href="#7" y="4.342"/><use xlink:href="#8" y="8.684"/><use xlink:href="#9" y="10.855"/><use xlink:href="#10" y="13.026"/><use xlink:href="#11" y="15.197"/><use xlink:href="#12" y="17.368"/><use xlink:href="#13" y="19.539"/><use xlink:href="#14" y="21.71"/><use xlink:href="#15" y="23.881"/></svg><svg x="2184"><use xlink:href="#a"/><use xlink:href="#6"/><use xlink:href="#7" y="2.171"/><use xlink:href="#8" y="6.513"/><use xlink:href="#9" y="8.684"/><use xlink:href="#10" y="10.855"/><use xlink:href="#11" y="13.026"/><use xlink:href="#12" y="15.197"/><use xlink:href="#13" y="17.368"/><use xlink:href="#14" y="19.539"/><use xlink:href="#15" y="21.71"/><use xlink:href="#16" y="26.052"/></svg><svg x="2275"><use xlink:href="#a"/><use xlink:href="#8"/><use xlink:href="#9" y="2.171"/><use xlink:href="#10" y="4.342"/><use xlink:href="#11" y="6.513"/><use xlink:href="#12" y="8.684"/><use xlink:href="#13" y="10.855"/><use xlink:href="#14" y="13.026"/><use xlink:href="#15" y="15.197"/><use xlink:href="#16" y="19.539"/><use xlink:href="#17" y="21.71"/><use xlink:href="#18" y="23.881"/><use xlink:href="#19" y="26.052"/></svg><svg x="2366"><use xlink:href="#a"/><use xlink:href="#9"/><use xlink:href="#10" y="2.171"/><use xlink:href="#11" y="4.342"/><use xlink:href="#12" y="6.513"/><use xlink:href="#13" y="8.684"/><use xlink:href="#14" y="10.855"/><use xlink:href="#15" y="13.026"/><use xlink:href="#16" y="17.368"/><use xlink:href="#17" y="19.539"/><use xlink:href="#18" y="21.71"/><use xlink:href="#19" y="23.881"/><use xlink:href="#20" y="26.052"/></svg><svg x="2457"><use xlink:href="#a"/><use xlink:href="#12"/><use xlink:href="#13" y="2.171"/><use xlink:href="#14" y="4.342"/><use xlink:href="#15" y="6.513"/><use xlink:href="#16" y="10.855"/><use xlink:href="#17" y="13.026"/><use xlink:href="#18" y="15.197"/><use xlink:href="#19" y="17.368"/><use xlink:href="#20" y="19.539"/><use xlink:href="#21" y="21.71"/><use xlink:href="#12" y="23.881"/><use xlink:href="#13" y="26.052"/></svg><svg x="2548"><use xlink:href="#a"/><use xlink:href="#12"/><use xlink:href="#13" y="2.171"/><use xlink:href="#14" y="4.342"/><use xlink:href="#15" y="6.513"/><use xlink:href="#16" y="10.855"/><use xlink:href="#17" y="13.026"/><use xlink:href="#18" y="15.197"/><use xlink:href="#19" y="17.368"/><use xlink:href="#20" y="19.539"/><use xlink:href="#21" y="21.71"/><use xlink:href="#12" y="23.881"/><use xlink:href="#13" y="26.052"/></svg><svg x="2639"><use xlink:href="#a"/><use xlink:href="#12"/><use xlink:href="#13" y="2.171"/><use xlink:href="#14" y="4.342"/><use xlink:href="#15" y="6.513"/><use xlink:href="#16" y="10.855"/><use xlink:href="#22" y="13.026"/><use xlink:href="#18" y="15.197"/><use xlink:href="#19" y="17.368"/><use xlink:href="#20" y="19.539"/><use xlink:href="#21" y="21.71"/><use xlink:href="#12" y="23.881"/><use xlink:href="#13" y="26.052"/></svg><svg x="2730"><use xlink:href="#a"/><use xlink:href="#12"/><use xlink:href="#13" y="2.171"/><use xlink:href="#14" y="4.342"/><use xlink:href="#15" y="6.513"/><use xlink:href="#16" y="10.855"/><use xlink:href="#22" y="13.026"/><text x="1.002" y="16.867" class="l">❱</text><text x="3.006" y="16.867" class="i">Shrek</text><text x="9.018" y="16.867" class="i">2</text><text x="11.022" y="16.867" class="i">(2004)</text><use xlink:href="#19" y="17.368"/><use xlink:href="#20" y="19.539"/><use xlink:href="#21" y="21.71"/><use xlink:href="#12" y="23.881"/><use xlink:href="#13" y="26.052"/></svg><svg x="2821"><use xlink:href="#a"/><use xlink:href="#12"/><use xlink:href="#13" y="2.171"/><use xlink:href="#14" y="4.342"/><use xlink:href="#15" y="6.513"/><use xlink:href="#16" y="10.855"/><use xlink:href="#22" y="13.026"/><use xlink:href="#18" y="15.197"/><use xlink:href="#23" y="17.368"/><use xlink:href="#20" y="19.539"/><use xlink:href="#21" y="21.71"/><use xlink:href="#12" y="23.881"/><use xlink:href="#13" y="26.052"/></svg><svg x="2912"><use xlink:href="#a"/><use xlink:href="#12"/><use xlink:href="#13" y="2.171"/><use xlink:href="#14" y="4.342"/><use xlink:href="#15" y="6.513"/><use xlink:href="#16" y="10.855"/><use xlink:href="#22" y="13.026"/><use xlink:href="#18" y="15.197"/><use xlink:href="#23" y="17.368"/><use xlink:href="#20" y="19.539"/><use xlink:href="#21" y="21.71"/><use xlink:href="#12" y="23.881"/><use xlink:href="#13" y="26.052"/></svg><svg x="3003"><use xlink:href="#a"/><use xlink:href="#b" x="-.004" y="28.198"/><use xlink:href="#13"/><use xlink:href="#14" y="2.171"/><use xlink:href="#15" y="4.342"/><use xlink:href="#16" y="8.684"/><use xlink:href="#22" y="10.855"/><use xlink:href="#18" y="13.026"/><use xlink:href="#23" y="15.197"/><use xlink:href="#20" y="17.368"/><use xlink:href="#21" y="19.539"/><use xlink:href="#12" y="21.71"/><use xlink:href="#13" y="23.881"/><use xlink:href="#24" y="26.052"/></svg><svg x="3094"><use xlink:href="#a"/><use xlink:href="#b" x="-.004" y="28.198"/><use xlink:href="#15"/><use xlink:href="#16" y="4.342"/><use xlink:href="#22" y="6.513"/><use xlink:href="#18" y="8.684"/><use xlink:href="#23" y="10.855"/><use xlink:href="#20" y="13.026"/><use xlink:href="#21" y="15.197"/><use xlink:href="#12" y="17.368"/><use xlink:href="#13" y="19.539"/><use xlink:href="#24" y="21.71"/><use xlink:href="#15" y="23.881"/></svg><svg x="3185"><use xlink:href="#a"/><use xlink:href="#16" y="2.171"/><use xlink:href="#22" y="4.342"/><use xlink:href="#18" y="6.513"/><use xlink:href="#23" y="8.684"/><use xlink:href="#20" y="10.855"/><use xlink:href="#21" y="13.026"/><use xlink:href="#12" y="15.197"/><use xlink:href="#13" y="17.368"/><use xlink:href="#24" y="19.539"/><use xlink:href="#15" y="21.71"/><use xlink:href="#25" y="26.052"/></svg><svg x="3276"><use xlink:href="#a"/><use xlink:href="#22"/><use xlink:href="#18" y="2.171"/><use xlink:href="#23" y="4.342"/><use xlink:href="#20" y="6.513"/><use xlink:href="#21" y="8.684"/><use xlink:href="#12" y="10.855"/><use xlink:href="#13" y="13.026"/><use xlink:href="#24" y="15.197"/><use xlink:href="#15" y="17.368"/><use xlink:href="#25" y="21.71"/><use xlink:href="#26" y="23.881"/><use xlink:href="#27" y="26.052"/></svg><svg x="3367"><use xlink:href="#a"/><use xlink:href="#18"/><use xlink:href="#23" y="2.171"/><use xlink:href="#20" y="4.342"/><use xlink:href="#21" y="6.513"/><use xlink:href="#12" y="8.684"/><use xlink:href="#13" y="10.855"/><use xlink:href="#24" y="13.026"/><use xlink:href="#15" y="15.197"/><use xlink:href="#25" y="19.539"/><use xlink:href="#26" y="21.71"/><use xlink:href="#27" y="23.881"/><use xlink:href="#28" y="26.052"/></svg><svg x="3458"><use xlink:href="#a"/><use xlink:href="#23"/><use xlink:href="#20" y="2.171"/><use xlink:href="#21" y="4.342"/><use xlink:href="#12" y="6.513"/><use xlink:href="#13" y="8.684"/><use xlink:href="#24" y="10.855"/><use xlink:href="#15" y="13.026"/><use xlink:href="#25" y="17.368"/><use xlink:href="#26" y="19.539"/><use xlink:href="#27" y="21.71"/><use xlink:href="#28" y="23.881"/><use xlink:href="#29" y="26.052"/></svg><svg x="3549"><use xlink:href="#a"/><use xlink:href="#20"/><use xlink:href="#21" y="2.171"/><use xlink:href="#12" y="4.342"/><use xlink:href="#13" y="6.513"/><use xlink:href="#24" y="8.684"/><use xlink:href="#15" y="10.855"/><use xlink:href="#25" y="15.197"/><use xlink:href="#26" y="17.368"/><use xlink:href="#27" y="19.539"/><use xlink:href="#28" y="21.71"/><use xlink:href="#29" y="23.881"/><use xlink:href="#30" y="26.052"/></svg><svg x="3640"><use xlink:href="#a"/><use xlink:href="#12"/><use xlink:href="#13" y="2.171"/><use xlink:href="#24" y="4.342"/><use xlink:href="#15" y="6.513"/><use xlink:href="#25" y="10.855"/><use xlink:href="#26" y="13.026"/><use xlink:href="#27" y="15.197"/><use xlink:href="#28" y="17.368"/><use xlink:href="#29" y="19.539"/><use xlink:href="#30" y="21.71"/><use xlink:href="#12" y="23.881"/><use xlink:href="#13" y="26.052"/></svg><svg x="3731"><use xlink:href="#a"/><use xlink:href="#12"/><use xlink:href="#13" y="2.171"/><use xlink:href="#24" y="4.342"/><use xlink:href="#15" y="6.513"/><use xlink:href="#25" y="10.855"/><use xlink:href="#26" y="13.026"/><use xlink:href="#27" y="15.197"/><use xlink:href="#28" y="17.368"/><use xlink:href="#29" y="19.539"/><use xlink:href="#30" y="21.71"/><use xlink:href="#12" y="23.881"/><use xlink:href="#13" y="26.052"/></svg><svg x="3822"><use xlink:href="#a"/><use xlink:href="#b" x="-.004" y="28.198"/><use xlink:href="#13"/><use xlink:href="#24" y="2.171"/><use xlink:href="#15" y="4.342"/><use xlink:href="#25" y="8.684"/><use xlink:href="#26" y="10.855"/><use xlink:href="#27" y="13.026"/><use xlink:href="#28" y="15.197"/><use xlink:href="#29" y="17.368"/><use xlink:href="#30" y="19.539"/><use xlink:href="#12" y="21.71"/><use xlink:href="#13" y="23.881"/><use xlink:href="#31" y="26.052"/></svg><svg x="3913"><use xlink:href="#a"/><use xlink:href="#b" x="-.004" y="28.198"/><use xlink:href="#15"/><use xlink:href="#25" y="4.342"/><use xlink:href="#26" y="6.513"/><use xlink:href="#27" y="8.684"/><use xlink:href="#28" y="10.855"/><use xlink:href="#29" y="13.026"/><use xlink:href="#30" y="15.197"/><use xlink:href="#12" y="17.368"/><use xlink:href="#13" y="19.539"/><use xlink:href="#31" y="21.71"/><use xlink:href="#15" y="23.881"/></svg><svg x="4004"><use xlink:href="#a"/><use xlink:href="#b" x="-.004" y="28.198"/><use xlink:href="#25" y="2.171"/><use xlink:href="#26" y="4.342"/><use xlink:href="#27" y="6.513"/><use xlink:href="#28" y="8.684"/><use xlink:href="#29" y="10.855"/><use xlink:href="#30" y="13.026"/><use xlink:href="#12" y="15.197"/><use xlink:href="#13" y="17.368"/><use xlink:href="#31" y="19.539"/><use xlink:href="#15" y="21.71"/><use xlink:href="#32" y="26.052"/></svg><svg x="4095"><use xlink:href="#a"/><use xlink:href="#b" x="24.996" y="28.198"/><use xlink:href="#25" y="2.171"/><use xlink:href="#26" y="4.342"/><use xlink:href="#27" y="6.513"/><use xlink:href="#28" y="8.684"/><use xlink:href="#29" y="10.855"/><use xlink:href="#30" y="13.026"/><use xlink:href="#12" y="15.197"/><use xlink:href="#13" y="17.368"/><use xlink:href="#31" y="19.539"/><use xlink:href="#15" y="21.71"/><use xlink:href="#32" y="26.052"/><use xlink:href="#1" y="28.223"/></svg><svg x="4186"><use xlink:href="#a"/><use xlink:href="#b" x="25.996" y="28.198"/><use xlink:href="#25" y="2.171"/><use xlink:href="#26" y="4.342"/><use xlink:href="#27" y="6.513"/><use xlink:href="#28" y="8.684"/><use xlink:href="#29" y="10.855"/><use xlink:href="#30" y="13.026"/><use xlink:href="#12" y="15.197"/><use xlink:href="#13" y="17.368"/><use xlink:href="#31" y="19.539"/><use xlink:href="#15" y="21.71"/><use xlink:href="#32" y="26.052"/><use xlink:href="#2" y="28.223"/></svg><svg x="4277"><use xlink:href="#a"/><use xlink:href="#b" x="26.996" y="28.198"/><use xlink:href="#25" y="2.171"/><use xlink:href="#26" y="4.342"/><use xlink:href="#27" y="6.513"/><use xlink:href="#28" y="8.684"/><use xlink:href="#29" y="10.855"/><use xlink:href="#30" y="13.026"/><use xlink:href="#12" y="15.197"/><use xlink:href="#13" y="17.368"/><use xlink:href="#31" y="19.539"/><use xlink:href="#15" y="21.71"/><use xlink:href="#32" y="26.052"/><use xlink:href="#3" y="28.223"/></svg><svg x="4368"><use xlink:href="#a"/><use xlink:href="#b" x="-.004" y="28.198"/><use xlink:href="#25"/><use xlink:href="#26" y="2.171"/><use xlink:href="#27" y="4.342"/><use xlink:href="#28" y="6.513"/><use xlink:href="#29" y="8.684"/><use xlink:href="#30" y="10.855"/><use xlink:href="#12" y="13.026"/><use xlink:href="#13" y="15.197"/><use xlink:href="#31" y="17.368"/><use xlink:href="#15" y="19.539"/><use xlink:href="#32" y="23.881"/><use xlink:href="#3" y="26.052"/></svg><svg x="4459"><use xlink:href="#a"/><use xlink:href="#b" x="-.004" y="28.198"/><use xlink:href="#28"/><use xlink:href="#29" y="2.171"/><use xlink:href="#30" y="4.342"/><use xlink:href="#12" y="6.513"/><use xlink:href="#13" y="8.684"/><use xlink:href="#31" y="10.855"/><use xlink:href="#15" y="13.026"/><use xlink:href="#32" y="17.368"/><use xlink:href="#3" y="19.539"/><use xlink:href="#33" y="21.71"/><use xlink:href="#34" y="23.881"/><use xlink:href="#35" y="26.052"/></svg><svg x="4550"><use xlink:href="#a"/><use xlink:href="#b" x="24.996" y="28.198"/><use xlink:href="#28"/><use xlink:href="#29" y="2.171"/><use xlink:href="#30" y="4.342"/><use xlink:href="#12" y="6.513"/><use xlink:href="#13" y="8.684"/><use xlink:href="#31" y="10.855"/><use xlink:href="#15" y="13.026"/><use xlink:href="#32" y="17.368"/><use xlink:href="#3" y="19.539"/><use xlink:href="#33" y="21.71"/><use xlink:href="#34" y="23.881"/><use xlink:href="#35" y="26.052"/><use xlink:href="#1" y="28.223"/></svg><svg x="4641"><use xlink:href="#a"/><use xlink:href="#b" x="-.004" y="28.198"/><use xlink:href="#29"/><use xlink:href="#30" y="2.171"/><use xlink:href="#12" y="4.342"/><use xlink:href="#13" y="6.513"/><use xlink:href="#31" y="8.684"/><use xlink:href="#15" y="10.855"/><use xlink:href="#32" y="15.197"/><use xlink:href="#3" y="17.368"/><use xlink:href="#33" y="19.539"/><use xlink:href="#34" y="21.71"/><use xlink:href="#35" y="23.881"/><text y="27.722" class="f">jkwill87</text><text x="8.016" y="27.722" class="g">%bmo</text><text x="12.024" y="27.722" class="h">:Downloads</text><text x="23.046" y="27.722" class="i">$</text><text x="25.05" y="27.722" class="i">exit</text></svg></svg></g></g></svg></svg>