<svg xmlns="http://www.w3.org/2000/svg" xmlns:xlink="http://www.w3.org/1999/xlink" width="840" height="581.04"><rect width="840" height="581.04" rx="5" ry="5" class="a"/><svg y="0%" x="0%"><circle cx="20" cy="20" r="6" fill="#ff5f58"/><circle cx="40" cy="20" r="6" fill="#ffbd2e"/><circle cx="60" cy="20" r="6" fill="#18c132"/></svg><svg height="521.04" viewBox="0 0 80 52.104" width="800" x="15" xmlns="http://www.w3.org/2000/svg" xmlns:xlink="http://www.w3.org/1999/xlink" y="50"><style>@keyframes n{0%{transform:translateX(0)}4.64%{transform:translateX(-80px)}7.63%{transform:translateX(-160px)}8.2%{transform:translateX(-240px)}11.81%{transform:translateX(-320px)}11.84%{transform:translateX(-400px)}11.92%{transform:translateX(-480px)}24.8%{transform:translateX(-560px)}25.47%{transform:translateX(-640px)}26.04%{transform:translateX(-720px)}26.22%{transform:translateX(-800px)}27%{transform:translateX(-880px)}27.28%{transform:translateX(-960px)}27.88%{transform:translateX(-1040px)}29.9%{transform:translateX(-1120px)}36.28%{transform:translateX(-1200px)}40.04%{transform:translateX(-1440px)}40.83%{transform:translateX(-1520px)}40.96%{transform:translateX(-1680px)}40.97%{transform:translateX(-2000px)}40.98%{transform:translateX(-2240px)}40.99%{transform:translateX(-2480px)}41%{transform:translateX(-2560px)}52.59%{transform:translateX(-2640px)}55.28%{transform:translateX(-2800px)}55.29%{transform:translateX(-2880px)}55.45%{transform:translateX(-2960px)}55.48%{transform:translateX(-3040px)}55.49%{transform:translateX(-3200px)}65.92%{transform:translateX(-3520px)}65.93%{transform:translateX(-3680px)}66.16%{transform:translateX(-3760px)}68.56%{transform:translateX(-3840px)}68.6%{transform:translateX(-3920px)}68.64%{transform:translateX(-4080px)}74.11%{transform:translateX(-4160px)}74.12%{transform:translateX(-4320px)}74.13%{transform:translateX(-4480px)}74.28%{transform:translateX(-4560px)}74.4%{transform:translateX(-4640px)}79.72%{transform:translateX(-4720px)}80.22%{transform:translateX(-4800px)}80.75%{transform:translateX(-4880px)}80.78%{transform:translateX(-4960px)}80.85%{transform:translateX(-5040px)}to{transform:translateX(-5120px)}}.a{fill:#000}.f{fill:#005fff}.g{fill:#00afff}.h{fill:#00d7ff}.i{fill:#f2f2f2}.j{fill:#fff;font-weight:700}.k{fill:#25bc24}</style><g font-size="1.67" font-family="Monaco,Consolas,Menlo,'Bitstream Vera Sans Mono','Powerline Symbols',monospace"><defs><symbol id="1"><text y="1.67" class="f">jkwill87</text><text x="8.016" y="1.67" class="g">%bmo</text><text x="12.024" y="1.67" class="h">:Downloads</text><text x="23.046" y="1.67" class="i">$</text></symbol><symbol id="2"><text y="1.67" class="f">jkwill87</text><text x="8.016" y="1.67" class="g">%bmo</text><text x="12.024" y="1.67" class="h">:Downloads</text><text x="23.046" y="1.67" class="i">$</text><text x="25.05" y="1.67" class="i">l</text></symbol><symbol id="3"><text y="1.67" class="f">jkwill87</text><text x="8.016" y="1.67" class="g">%bmo</text><text x="12.024" y="1.67" class="h">:Downloads</text><text x="23.046" y="1.67" class="i">$</text><text x="25.05" y="1.67" class="i">ls</text></symbol><symbol id="4"><text y="1.67" class="i">game.of.thrones.s01e05.mkv</text><text x="28.056" y="1.67" class="i">goonies.mp4</text><text x="41.082" y="1.67" class="i">homework.txt</text><text x="55.11" y="1.67" class="i">shrek.avi</text></symbol><symbol id="5"><text y="1.67" class="f">jkwill87</text><text x="8.016" y="1.67" class="g">%bmo</text><text x="12.024" y="1.67" class="h">:Downloads</text><text x="23.046" y="1.67" class="i">$</text><text x="25.05" y="1.67" class="i">mnamer</text></symbol><symbol id="6"><text y="1.67" class="f">jkwill87</text><text x="8.016" y="1.67" class="g">%bmo</text><text x="12.024" y="1.67" class="h">:Downloads</text><text x="23.046" y="1.67" class="i">$</text><text x="25.05" y="1.67" class="i">mnamer</text><text x="32.064" y="1.67" class="i">.</text></symbol><symbol id="7"><text y="1.67" class="j">Starting</text><text x="9.018" y="1.67" class="j">mnamer</text></symbol><symbol id="8"><text y="1.67" class="j">Detected</text><text x="9.018" y="1.67" class="j">File</text></symbol><symbol id="9"><text y="1.67" class="i">shrek</text></symbol><symbol id="10"><text y="1.67" class="j">Query</text><text x="6.012" y="1.67" class="j">Results</text></symbol><symbol id="11"><text x="2.004" y="1.67" class="i">[1]</text><text x="6.012" y="1.67" class="i">Shrek</text><text x="12.024" y="1.67" class="i">(2001)</text></symbol><symbol id="12"><text x="2.004" y="1.67" class="i">[2]</text><text x="6.012" y="1.67" class="i">Shrek</text><text x="12.024" y="1.67" class="i">2</text><text x="14.028" y="1.67" class="i">(2004)</text></symbol><symbol id="13"><text x="2.004" y="1.67" class="i">[3]</text><text x="6.012" y="1.67" class="i">Shrek</text><text x="12.024" y="1.67" class="i">Forever</text><text x="20.04" y="1.67" class="i">After</text><text x="26.052" y="1.67" class="i">(2010)</text></symbol><symbol id="14"><text x="2.004" y="1.67" class="i">[4]</text><text x="6.012" y="1.67" class="i">Shrek</text><text x="12.024" y="1.67" class="i">the</text><text x="16.032" y="1.67" class="i">Third</text><text x="22.044" y="1.67" class="i">(2007)</text></symbol><symbol id="15"><text x="2.004" y="1.67" class="i">[5]</text><text x="6.012" y="1.67" class="i">Shrek</text><text x="12.024" y="1.67" class="i">the</text><text x="16.032" y="1.67" class="i">Halls</text><text x="22.044" y="1.67" class="i">(2007)</text></symbol><symbol id="16"><text x="2.004" y="1.67" class="i">[6]</text><text x="6.012" y="1.67" class="i">Shrek</text><text x="12.024" y="1.67" class="i">5</text><text x="14.028" y="1.67" class="i">(2019)</text></symbol><symbol id="17"><text x="2.004" y="1.67" class="i">[7]</text><text x="6.012" y="1.67" class="i">Scared</text><text x="13.026" y="1.67" class="i">Shrekless</text><text x="23.046" y="1.67" class="i">(2010)</text></symbol><symbol id="18"><text x="2.004" y="1.67" class="i">[8]</text><text x="6.012" y="1.67" class="i">Shrek</text><text x="12.024" y="1.67" class="i">the</text><text x="16.032" y="1.67" class="i">Musical</text><text x="24.048" y="1.67" class="i">(2013)</text></symbol><symbol id="19"><text x="2.004" y="1.67" class="i">[9]</text><text x="6.012" y="1.67" class="i">Shrek</text><text x="12.024" y="1.67" class="i">in</text><text x="15.03" y="1.67" class="i">the</text><text x="19.038" y="1.67" class="i">Swamp</text><text x="25.05" y="1.67" class="i">Karaoke</text><text x="33.066" y="1.67" class="i">Dance</text><text x="39.078" y="1.67" class="i">Party</text><text x="45.09" y="1.67" class="i">(2001)</text></symbol><symbol id="20"><text x="2.004" y="1.67" class="i">[10]</text><text x="7.014" y="1.67" class="i">Shrek</text><text x="13.026" y="1.67" class="i">Stories</text><text x="21.042" y="1.67" class="i">(2013)</text></symbol><symbol id="21"><text x="2.004" y="1.67" class="i">[11]</text><text x="7.014" y="1.67" class="i">Shrek&apos;s</text><text x="15.03" y="1.67" class="i">Thrilling</text><text x="25.05" y="1.67" class="i">Tales</text><text x="31.062" y="1.67" class="i">(2012)</text></symbol><symbol id="22"><text x="2.004" y="1.67" class="i">[12]</text><text x="7.014" y="1.67" class="i">Shrek</text><text x="13.026" y="1.67" class="i">Is</text><text x="16.032" y="1.67" class="i">Love,</text><text x="22.044" y="1.67" class="i">Shrek</text><text x="28.056" y="1.67" class="i">Is</text><text x="31.062" y="1.67" class="i">Life</text><text x="36.072" y="1.67" class="i">(2014)</text></symbol><symbol id="23"><text x="2.004" y="1.67" class="i">[13]</text><text x="7.014" y="1.67" class="i">The</text><text x="11.022" y="1.67" class="i">Ghost</text><text x="17.034" y="1.67" class="i">of</text><text x="20.04" y="1.67" class="i">Lord</text><text x="25.05" y="1.67" class="i">Farquaad</text><text x="34.068" y="1.67" class="i">(2003)</text></symbol><symbol id="24"><text x="2.004" y="1.67" class="i">[14]</text><text x="7.014" y="1.67" class="i">Thriller</text><text x="16.032" y="1.67" class="i">Night</text><text x="22.044" y="1.67" class="i">(2011)</text></symbol><symbol id="25"><text x="2.004" y="1.67" class="i">[RETURN]</text><text x="11.022" y="1.67" class="i">for</text><text x="15.03" y="1.67" class="i">default,</text><text x="24.048" y="1.67" class="i">[s]kip,</text><text x="32.064" y="1.67" class="i">[q]uit</text></symbol><symbol id="26"><text x="3.006" y="1.67" class="i">&gt;</text><text x="5.01" y="1.67" class="i">Your</text><text x="10.02" y="1.67" class="i">Choice?</text></symbol><symbol id="27"><text x="3.006" y="1.67" class="i">&gt;</text><text x="5.01" y="1.67" class="i">Your</text><text x="10.02" y="1.67" class="i">Choice?</text><text x="18.036" y="1.67" class="i">4</text></symbol><symbol id="28"><text y="1.67" class="j">Processing</text><text x="11.022" y="1.67" class="j">File</text></symbol><symbol id="29"><text x="2.004" y="1.67" class="i">•</text><text x="4.008" y="1.67" class="i">Relocating</text><text x="15.03" y="1.67" class="i">file</text><text x="20.04" y="1.67" class="i">to</text><text x="23.046" y="1.67" class="i">&apos;/Users/jkwill87/Downloads/Shrek</text><text x="56.112" y="1.67" class="i">the</text><text x="60.12" y="1.67" class="i">Third</text><text x="66.132" y="1.67" class="i">(2007).avi&apos;</text></symbol><symbol id="30"><text x="2.004" y="1.67" class="k">•</text><text x="4.008" y="1.67" class="k">Success!</text></symbol><symbol id="31"><text y="1.67" class="i">goonies</text></symbol><symbol id="32"><text x="2.004" y="1.67" class="i">[1]</text><text x="6.012" y="1.67" class="i">The</text><text x="10.02" y="1.67" class="i">Goonies</text><text x="18.036" y="1.67" class="i">(1985)</text></symbol><symbol id="33"><text x="2.004" y="1.67" class="i">[2]</text><text x="6.012" y="1.67" class="i">Making</text><text x="13.026" y="1.67" class="i">of</text><text x="16.032" y="1.67" class="i">A</text><text x="18.036" y="1.67" class="i">Cult</text><text x="23.046" y="1.67" class="i">Classic:</text><text x="32.064" y="1.67" class="i">the</text><text x="36.072" y="1.67" class="i">Unauthorized</text><text x="49.098" y="1.67" class="i">Story</text><text x="55.11" y="1.67" class="i">Of</text><text x="58.116" y="1.67" class="i">&apos;the</text><text x="63.126" y="1.67" class="i">Goonies&apos;</text><text x="72.144" y="1.67" class="i">(2010)</text></symbol><symbol id="34"><text x="2.004" y="1.67" class="i">•</text><text x="4.008" y="1.67" class="i">Relocating</text><text x="15.03" y="1.67" class="i">file</text><text x="20.04" y="1.67" class="i">to</text><text x="23.046" y="1.67" class="i">&apos;/Users/jkwill87/Downloads/The</text><text x="54.108" y="1.67" class="i">Goonies</text><text x="62.124" y="1.67" class="i">(1985).mp4&apos;</text></symbol><symbol id="35"><text y="1.67" class="i">game.of.thrones.s01e05</text></symbol><symbol id="36"><text x="2.004" y="1.67" class="i">[1]</text><text x="6.012" y="1.67" class="i">Game</text><text x="11.022" y="1.67" class="i">of</text><text x="14.028" y="1.67" class="i">Thrones</text><text x="22.044" y="1.67" class="i">-</text><text x="24.048" y="1.67" class="i">01x05</text><text x="30.06" y="1.67" class="i">-</text><text x="32.064" y="1.67" class="i">The</text><text x="36.072" y="1.67" class="i">Wolf</text><text x="41.082" y="1.67" class="i">and</text><text x="45.09" y="1.67" class="i">The</text><text x="49.098" y="1.67" class="i">Lion</text></symbol><symbol id="37"><text x="2.004" y="1.67" class="i">[2]</text><text x="6.012" y="1.67" class="i">Game</text><text x="11.022" y="1.67" class="i">of</text><text x="14.028" y="1.67" class="i">Thrones:</text><text x="23.046" y="1.67" class="i">Cartoon</text><text x="31.062" y="1.67" class="i">Parody</text><text x="38.076" y="1.67" class="i">-</text><text x="40.08" y="1.67" class="i">01x05</text><text x="46.092" y="1.67" class="i">-</text><text x="48.096" y="1.67" class="i">Episode</text><text x="56.112" y="1.67" class="i">5</text></symbol><symbol id="38"><text x="2.004" y="1.67" class="i">[3]</text><text x="6.012" y="1.67" class="i">Tribe</text><text x="12.024" y="1.67" class="i">of</text><text x="15.03" y="1.67" class="i">Hip</text><text x="19.038" y="1.67" class="i">Hop</text><text x="23.046" y="1.67" class="i">-</text><text x="25.05" y="1.67" class="i">01x05</text><text x="31.062" y="1.67" class="i">-</text><text x="33.066" y="1.67" class="i">Episode</text><text x="41.082" y="1.67" class="i">5</text></symbol><symbol id="39"><text x="2.004" y="1.67" class="i">•</text><text x="4.008" y="1.67" class="i">Relocating</text><text x="15.03" y="1.67" class="i">file</text><text x="20.04" y="1.67" class="i">to</text><text x="23.046" y="1.67" class="i">&apos;/Users/jkwill87/Downloads/Game</text><text x="55.11" y="1.67" class="i">of</text><text x="58.116" y="1.67" class="i">Thrones</text><text x="66.132" y="1.67" class="i">-</text><text x="68.136" y="1.67" class="i">S01E05</text><text x="75.15" y="1.67" class="i">-</text><text x="77.154" y="1.67" class="i">The</text></symbol><symbol id="40"><text x="1.002" y="1.67" class="i">Wolf</text><text x="6.012" y="1.67" class="i">and</text><text x="10.02" y="1.67" class="i">The</text><text x="14.028" y="1.67" class="i">Lion.mkv&apos;</text></symbol><symbol id="41"><text y="1.67" class="k">Successfully</text><text x="13.026" y="1.67" class="k">processed</text><text x="23.046" y="1.67" class="k">3</text><text x="25.05" y="1.67" class="k">out</text><text x="29.058" y="1.67" class="k">of</text><text x="32.064" y="1.67" class="k">3</text><text x="34.068" y="1.67" class="k">files</text></symbol><symbol id="42"><text y="1.67" class="i">Game</text><text x="5.01" y="1.67" class="i">of</text><text x="8.016" y="1.67" class="i">Thrones</text><text x="16.032" y="1.67" class="i">-</text><text x="18.036" y="1.67" class="i">S01E05</text><text x="25.05" y="1.67" class="i">-</text><text x="27.054" y="1.67" class="i">The</text><text x="31.062" y="1.67" class="i">Wolf</text><text x="36.072" y="1.67" class="i">and</text><text x="40.08" y="1.67" class="i">The</text><text x="44.088" y="1.67" class="i">Lion.mkv</text><text x="54.108" y="1.67" class="i">The</text><text x="58.116" y="1.67" class="i">Goonies</text><text x="66.132" y="1.67" class="i">(1985).mp4</text></symbol><symbol id="43"><text y="1.67" class="i">Shrek</text><text x="6.012" y="1.67" class="i">the</text><text x="10.02" y="1.67" class="i">Third</text><text x="16.032" y="1.67" class="i">(2007).avi</text><text x="54.108" y="1.67" class="i">homework.txt</text></symbol><symbol id="a"><path fill="transparent" d="M0 0h80v24H0z"/></symbol><symbol id="b"><path fill="#4d4d4d" d="M0 0h1.102v2.171H0z"/></symbol></defs><path class="a" d="M0 0h80v52.104H0z"/><g style="animation-duration:22.558678s;animation-iteration-count:infinite;animation-name:n;animation-timing-function:steps(1,end)"><svg width="5200"><svg><use xlink:href="#a"/><use xlink:href="#b" x="-.004"/></svg><svg x="80"><use xlink:href="#a"/><use xlink:href="#b" x="24.996"/><use xlink:href="#1"/></svg><svg x="160"><use xlink:href="#a"/><use xlink:href="#b" x="25.996"/><use xlink:href="#2"/></svg><svg x="240"><use xlink:href="#a"/><use xlink:href="#b" x="26.996"/><use xlink:href="#3"/></svg><svg x="320"><use xlink:href="#a"/><use xlink:href="#b" x="-.004" y="2.146"/><use xlink:href="#3"/></svg><svg x="400"><use xlink:href="#a"/><use xlink:href="#b" x="-.004" y="4.317"/><use xlink:href="#3"/><use xlink:href="#4" y="2.171"/></svg><svg x="480"><use xlink:href="#a"/><use xlink:href="#b" x="24.996" y="4.317"/><use xlink:href="#3"/><use xlink:href="#4" y="2.171"/><use xlink:href="#1" y="4.342"/></svg><svg x="560"><use xlink:href="#a"/><use xlink:href="#b" x="25.996" y="4.317"/><use xlink:href="#3"/><use xlink:href="#4" y="2.171"/><text y="6.012" class="f">jkwill87</text><text x="8.016" y="6.012" class="g">%bmo</text><text x="12.024" y="6.012" class="h">:Downloads</text><text x="23.046" y="6.012" class="i">$</text><text x="25.05" y="6.012" class="i">m</text></svg><svg x="640"><use xlink:href="#a"/><use xlink:href="#b" x="26.996" y="4.317"/><use xlink:href="#3"/><use xlink:href="#4" y="2.171"/><text y="6.012" class="f">jkwill87</text><text x="8.016" y="6.012" class="g">%bmo</text><text x="12.024" y="6.012" class="h">:Downloads</text><text x="23.046" y="6.012" class="i">$</text><text x="25.05" y="6.012" class="i">mn</text></svg><svg x="720"><use xlink:href="#a"/><use xlink:href="#b" x="27.996" y="4.317"/><use xlink:href="#3"/><use xlink:href="#4" y="2.171"/><text y="6.012" class="f">jkwill87</text><text x="8.016" y="6.012" class="g">%bmo</text><text x="12.024" y="6.012" class="h">:Downloads</text><text x="23.046" y="6.012" class="i">$</text><text x="25.05" y="6.012" class="i">mna</text></svg><svg x="800"><use xlink:href="#a"/><use xlink:href="#b" x="28.996" y="4.317"/><use xlink:href="#3"/><use xlink:href="#4" y="2.171"/><text y="6.012" class="f">jkwill87</text><text x="8.016" y="6.012" class="g">%bmo</text><text x="12.024" y="6.012" class="h">:Downloads</text><text x="23.046" y="6.012" class="i">$</text><text x="25.05" y="6.012" class="i">mnam</text></svg><svg x="880"><use xlink:href="#a"/><use xlink:href="#b" x="29.996" y="4.317"/><use xlink:href="#3"/><use xlink:href="#4" y="2.171"/><text y="6.012" class="f">jkwill87</text><text x="8.016" y="6.012" class="g">%bmo</text><text x="12.024" y="6.012" class="h">:Downloads</text><text x="23.046" y="6.012" class="i">$</text><text x="25.05" y="6.012" class="i">mname</text></svg><svg x="960"><use xlink:href="#a"/><use xlink:href="#b" x="30.996" y="4.317"/><use xlink:href="#3"/><use xlink:href="#4" y="2.171"/><use xlink:href="#5" y="4.342"/></svg><svg x="1040"><use xlink:href="#a"/><use xlink:href="#b" x="31.996" y="4.317"/><use xlink:href="#3"/><use xlink:href="#4" y="2.171"/><use xlink:href="#5" y="4.342"/></svg><svg x="1120"><use xlink:href="#a"/><use xlink:href="#b" x="32.996" y="4.317"/><use xlink:href="#3"/><use xlink:href="#4" y="2.171"/><use xlink:href="#6" y="4.342"/></svg><svg x="1200"><use xlink:href="#a"/><use xlink:href="#b" x="-.004" y="6.488"/><use xlink:href="#3"/><use xlink:href="#4" y="2.171"/><use xlink:href="#6" y="4.342"/></svg><svg x="1280"><use xlink:href="#a"/><use xlink:href="#b" x="-.004" y="10.83"/><use xlink:href="#3"/><use xlink:href="#4" y="2.171"/><use xlink:href="#6" y="4.342"/><use xlink:href="#7" y="8.684"/></svg><svg x="1360"><use xlink:href="#a"/><use xlink:href="#b" x="-.004" y="15.172"/><use xlink:href="#3"/><use xlink:href="#4" y="2.171"/><use xlink:href="#6" y="4.342"/><use xlink:href="#7" y="8.684"/><use xlink:href="#8" y="13.026"/></svg><svg x="1440"><use xlink:href="#a"/><use xlink:href="#b" x="-.004" y="17.343"/><use xlink:href="#3"/><use xlink:href="#4" y="2.171"/><use xlink:href="#6" y="4.342"/><use xlink:href="#7" y="8.684"/><use xlink:href="#8" y="13.026"/><use xlink:href="#9" y="15.197"/></svg><svg x="1520"><use xlink:href="#a"/><use xlink:href="#b" x="-.004" y="21.685"/><use xlink:href="#3"/><use xlink:href="#4" y="2.171"/><use xlink:href="#6" y="4.342"/><use xlink:href="#7" y="8.684"/><use xlink:href="#8" y="13.026"/><use xlink:href="#9" y="15.197"/><use xlink:href="#10" y="19.539"/></svg><svg x="1600"><use xlink:href="#a"/><use xlink:href="#b" x="-.004" y="23.856"/><use xlink:href="#3"/><use xlink:href="#4" y="2.171"/><use xlink:href="#6" y="4.342"/><use xlink:href="#7" y="8.684"/><use xlink:href="#8" y="13.026"/><use xlink:href="#9" y="15.197"/><use xlink:href="#10" y="19.539"/><use xlink:href="#11" y="21.71"/></svg><svg x="1680"><use xlink:href="#a"/><use xlink:href="#b" x="-.004" y="26.027"/><use xlink:href="#3"/><use xlink:href="#4" y="2.171"/><use xlink:href="#6" y="4.342"/><use xlink:href="#7" y="8.684"/><use xlink:href="#8" y="13.026"/><use xlink:href="#9" y="15.197"/><use xlink:href="#10" y="19.539"/><use xlink:href="#11" y="21.71"/><use xlink:href="#12" y="23.881"/></svg><svg x="1760"><use xlink:href="#a"/><use xlink:href="#b" x="-.004" y="28.198"/><use xlink:href="#3"/><use xlink:href="#4" y="2.171"/><use xlink:href="#6" y="4.342"/><use xlink:href="#7" y="8.684"/><use xlink:href="#8" y="13.026"/><use xlink:href="#9" y="15.197"/><use xlink:href="#10" y="19.539"/><use xlink:href="#11" y="21.71"/><use xlink:href="#12" y="23.881"/><use xlink:href="#13" y="26.052"/></svg><svg x="1840"><use xlink:href="#a"/><use xlink:href="#b" x="-.004" y="30.369"/><use xlink:href="#3"/><use xlink:href="#4" y="2.171"/><use xlink:href="#6" y="4.342"/><use xlink:href="#7" y="8.684"/><use xlink:href="#8" y="13.026"/><use xlink:href="#9" y="15.197"/><use xlink:href="#10" y="19.539"/><use xlink:href="#11" y="21.71"/><use xlink:href="#12" y="23.881"/><use xlink:href="#13" y="26.052"/><use xlink:href="#14" y="28.223"/></svg><svg x="1920"><use xlink:href="#a"/><use xlink:href="#b" x="-.004" y="32.54"/><use xlink:href="#3"/><use xlink:href="#4" y="2.171"/><use xlink:href="#6" y="4.342"/><use xlink:href="#7" y="8.684"/><use xlink:href="#8" y="13.026"/><use xlink:href="#9" y="15.197"/><use xlink:href="#10" y="19.539"/><use xlink:href="#11" y="21.71"/><use xlink:href="#12" y="23.881"/><use xlink:href="#13" y="26.052"/><use xlink:href="#14" y="28.223"/><use xlink:href="#15" y="30.394"/></svg><svg x="2000"><use xlink:href="#a"/><use xlink:href="#b" x="-.004" y="34.711"/><use xlink:href="#3"/><use xlink:href="#4" y="2.171"/><use xlink:href="#6" y="4.342"/><use xlink:href="#7" y="8.684"/><use xlink:href="#8" y="13.026"/><use xlink:href="#9" y="15.197"/><use xlink:href="#10" y="19.539"/><use xlink:href="#11" y="21.71"/><use xlink:href="#12" y="23.881"/><use xlink:href="#13" y="26.052"/><use xlink:href="#14" y="28.223"/><use xlink:href="#15" y="30.394"/><use xlink:href="#16" y="32.565"/></svg><svg x="2080"><use xlink:href="#a"/><use xlink:href="#b" x="-.004" y="36.882"/><use xlink:href="#3"/><use xlink:href="#4" y="2.171"/><use xlink:href="#6" y="4.342"/><use xlink:href="#7" y="8.684"/><use xlink:href="#8" y="13.026"/><use xlink:href="#9" y="15.197"/><use xlink:href="#10" y="19.539"/><use xlink:href="#11" y="21.71"/><use xlink:href="#12" y="23.881"/><use xlink:href="#13" y="26.052"/><use xlink:href="#14" y="28.223"/><use xlink:href="#15" y="30.394"/><use xlink:href="#16" y="32.565"/><use xlink:href="#17" y="34.736"/></svg><svg x="2160"><use xlink:href="#a"/><use xlink:href="#b" x="-.004" y="39.053"/><use xlink:href="#3"/><use xlink:href="#4" y="2.171"/><use xlink:href="#6" y="4.342"/><use xlink:href="#7" y="8.684"/><use xlink:href="#8" y="13.026"/><use xlink:href="#9" y="15.197"/><use xlink:href="#10" y="19.539"/><use xlink:href="#11" y="21.71"/><use xlink:href="#12" y="23.881"/><use xlink:href="#13" y="26.052"/><use xlink:href="#14" y="28.223"/><use xlink:href="#15" y="30.394"/><use xlink:href="#16" y="32.565"/><use xlink:href="#17" y="34.736"/><use xlink:href="#18" y="36.907"/></svg><svg x="2240"><use xlink:href="#a"/><use xlink:href="#b" x="-.004" y="41.224"/><use xlink:href="#3"/><use xlink:href="#4" y="2.171"/><use xlink:href="#6" y="4.342"/><use xlink:href="#7" y="8.684"/><use xlink:href="#8" y="13.026"/><use xlink:href="#9" y="15.197"/><use xlink:href="#10" y="19.539"/><use xlink:href="#11" y="21.71"/><use xlink:href="#12" y="23.881"/><use xlink:href="#13" y="26.052"/><use xlink:href="#14" y="28.223"/><use xlink:href="#15" y="30.394"/><use xlink:href="#16" y="32.565"/><use xlink:href="#17" y="34.736"/><use xlink:href="#18" y="36.907"/><use xlink:href="#19" y="39.078"/></svg><svg x="2320"><use xlink:href="#a"/><use xlink:href="#b" x="-.004" y="43.395"/><use xlink:href="#3"/><use xlink:href="#4" y="2.171"/><use xlink:href="#6" y="4.342"/><use xlink:href="#7" y="8.684"/><use xlink:href="#8" y="13.026"/><use xlink:href="#9" y="15.197"/><use xlink:href="#10" y="19.539"/><use xlink:href="#11" y="21.71"/><use xlink:href="#12" y="23.881"/><use xlink:href="#13" y="26.052"/><use xlink:href="#14" y="28.223"/><use xlink:href="#15" y="30.394"/><use xlink:href="#16" y="32.565"/><use xlink:href="#17" y="34.736"/><use xlink:href="#18" y="36.907"/><use xlink:href="#19" y="39.078"/><use xlink:href="#20" y="41.249"/></svg><svg x="2400"><use xlink:href="#a"/><use xlink:href="#b" x="-.004" y="45.566"/><use xlink:href="#3"/><use xlink:href="#4" y="2.171"/><use xlink:href="#6" y="4.342"/><use xlink:href="#7" y="8.684"/><use xlink:href="#8" y="13.026"/><use xlink:href="#9" y="15.197"/><use xlink:href="#10" y="19.539"/><use xlink:href="#11" y="21.71"/><use xlink:href="#12" y="23.881"/><use xlink:href="#13" y="26.052"/><use xlink:href="#14" y="28.223"/><use xlink:href="#15" y="30.394"/><use xlink:href="#16" y="32.565"/><use xlink:href="#17" y="34.736"/><use xlink:href="#18" y="36.907"/><use xlink:href="#19" y="39.078"/><use xlink:href="#20" y="41.249"/><use xlink:href="#21" y="43.42"/></svg><svg x="2480"><use xlink:href="#a"/><use xlink:href="#b" x="-.004" y="47.737"/><use xlink:href="#3"/><use xlink:href="#4" y="2.171"/><use xlink:href="#6" y="4.342"/><use xlink:href="#7" y="8.684"/><use xlink:href="#8" y="13.026"/><use xlink:href="#9" y="15.197"/><use xlink:href="#10" y="19.539"/><use xlink:href="#11" y="21.71"/><use xlink:href="#12" y="23.881"/><use xlink:href="#13" y="26.052"/><use xlink:href="#14" y="28.223"/><use xlink:href="#15" y="30.394"/><use xlink:href="#16" y="32.565"/><use xlink:href="#17" y="34.736"/><use xlink:href="#18" y="36.907"/><use xlink:href="#19" y="39.078"/><use xlink:href="#20" y="41.249"/><use xlink:href="#21" y="43.42"/><use xlink:href="#22" y="45.591"/></svg><svg x="2560"><use xlink:href="#a"/><use xlink:href="#b" x="17.996" y="49.908"/><use xlink:href="#6"/><use xlink:href="#7" y="4.342"/><use xlink:href="#8" y="8.684"/><use xlink:href="#9" y="10.855"/><use xlink:href="#10" y="15.197"/><use xlink:href="#11" y="17.368"/><use xlink:href="#12" y="19.539"/><use xlink:href="#13" y="21.71"/><use xlink:href="#14" y="23.881"/><use xlink:href="#15" y="26.052"/><use xlink:href="#16" y="28.223"/><use xlink:href="#17" y="30.394"/><use xlink:href="#18" y="32.565"/><use xlink:href="#19" y="34.736"/><use xlink:href="#20" y="36.907"/><use xlink:href="#21" y="39.078"/><use xlink:href="#22" y="41.249"/><use xlink:href="#23" y="43.42"/><use xlink:href="#24" y="45.591"/><use xlink:href="#25" y="47.762"/><use xlink:href="#26" y="49.933"/></svg><svg x="2640"><use xlink:href="#a"/><use xlink:href="#b" x="18.996" y="49.908"/><use xlink:href="#6"/><use xlink:href="#7" y="4.342"/><use xlink:href="#8" y="8.684"/><use xlink:href="#9" y="10.855"/><use xlink:href="#10" y="15.197"/><use xlink:href="#11" y="17.368"/><use xlink:href="#12" y="19.539"/><use xlink:href="#13" y="21.71"/><use xlink:href="#14" y="23.881"/><use xlink:href="#15" y="26.052"/><use xlink:href="#16" y="28.223"/><use xlink:href="#17" y="30.394"/><use xlink:href="#18" y="32.565"/><use xlink:href="#19" y="34.736"/><use xlink:href="#20" y="36.907"/><use xlink:href="#21" y="39.078"/><use xlink:href="#22" y="41.249"/><use xlink:href="#23" y="43.42"/><use xlink:href="#24" y="45.591"/><use xlink:href="#25" y="47.762"/><use xlink:href="#27" y="49.933"/></svg><svg x="2720"><use xlink:href="#a"/><use xlink:href="#b" x="-.004" y="49.908"/><use xlink:href="#7" y="2.171"/><use xlink:href="#8" y="6.513"/><use xlink:href="#9" y="8.684"/><use xlink:href="#10" y="13.026"/><use xlink:href="#11" y="15.197"/><use xlink:href="#12" y="17.368"/><use xlink:href="#13" y="19.539"/><use xlink:href="#14" y="21.71"/><use xlink:href="#15" y="23.881"/><use xlink:href="#16" y="26.052"/><use xlink:href="#17" y="28.223"/><use xlink:href="#18" y="30.394"/><use xlink:href="#19" y="32.565"/><use xlink:href="#20" y="34.736"/><use xlink:href="#21" y="36.907"/><use xlink:href="#22" y="39.078"/><use xlink:href="#23" y="41.249"/><use xlink:href="#24" y="43.42"/><use xlink:href="#25" y="45.591"/><use xlink:href="#27" y="47.762"/></svg><svg x="2800"><use xlink:href="#a"/><use xlink:href="#b" x="-.004" y="49.908"/><use xlink:href="#8" y="2.171"/><use xlink:href="#9" y="4.342"/><use xlink:href="#10" y="8.684"/><use xlink:href="#11" y="10.855"/><use xlink:href="#12" y="13.026"/><use xlink:href="#13" y="15.197"/><use xlink:href="#14" y="17.368"/><use xlink:href="#15" y="19.539"/><use xlink:href="#16" y="21.71"/><use xlink:href="#17" y="23.881"/><use xlink:href="#18" y="26.052"/><use xlink:href="#19" y="28.223"/><use xlink:href="#20" y="30.394"/><use xlink:href="#21" y="32.565"/><use xlink:href="#22" y="34.736"/><use xlink:href="#23" y="36.907"/><use xlink:href="#24" y="39.078"/><use xlink:href="#25" y="41.249"/><use xlink:href="#27" y="43.42"/><use xlink:href="#28" y="47.762"/></svg><svg x="2880"><use xlink:href="#a"/><use xlink:href="#b" x="-.004" y="49.908"/><use xlink:href="#11"/><use xlink:href="#12" y="2.171"/><use xlink:href="#13" y="4.342"/><use xlink:href="#14" y="6.513"/><use xlink:href="#15" y="8.684"/><use xlink:href="#16" y="10.855"/><use xlink:href="#17" y="13.026"/><use xlink:href="#18" y="15.197"/><use xlink:href="#19" y="17.368"/><use xlink:href="#20" y="19.539"/><use xlink:href="#21" y="21.71"/><use xlink:href="#22" y="23.881"/><use xlink:href="#23" y="26.052"/><use xlink:href="#24" y="28.223"/><use xlink:href="#25" y="30.394"/><use xlink:href="#27" y="32.565"/><use xlink:href="#28" y="36.907"/><use xlink:href="#29" y="39.078"/><use xlink:href="#30" y="41.249"/><use xlink:href="#8" y="45.591"/><use xlink:href="#31" y="47.762"/></svg><svg x="2960"><use xlink:href="#a"/><use xlink:href="#b" x="-.004" y="49.908"/><use xlink:href="#13"/><use xlink:href="#14" y="2.171"/><use xlink:href="#15" y="4.342"/><use xlink:href="#16" y="6.513"/><use xlink:href="#17" y="8.684"/><use xlink:href="#18" y="10.855"/><use xlink:href="#19" y="13.026"/><use xlink:href="#20" y="15.197"/><use xlink:href="#21" y="17.368"/><use xlink:href="#22" y="19.539"/><use xlink:href="#23" y="21.71"/><use xlink:href="#24" y="23.881"/><use xlink:href="#25" y="26.052"/><use xlink:href="#27" y="28.223"/><use xlink:href="#28" y="32.565"/><use xlink:href="#29" y="34.736"/><use xlink:href="#30" y="36.907"/><use xlink:href="#8" y="41.249"/><use xlink:href="#31" y="43.42"/><use xlink:href="#10" y="47.762"/></svg><svg x="3040"><use xlink:href="#a"/><use xlink:href="#b" x="-.004" y="49.908"/><use xlink:href="#14"/><use xlink:href="#15" y="2.171"/><use xlink:href="#16" y="4.342"/><use xlink:href="#17" y="6.513"/><use xlink:href="#18" y="8.684"/><use xlink:href="#19" y="10.855"/><use xlink:href="#20" y="13.026"/><use xlink:href="#21" y="15.197"/><use xlink:href="#22" y="17.368"/><use xlink:href="#23" y="19.539"/><use xlink:href="#24" y="21.71"/><use xlink:href="#25" y="23.881"/><use xlink:href="#27" y="26.052"/><use xlink:href="#28" y="30.394"/><use xlink:href="#29" y="32.565"/><use xlink:href="#30" y="34.736"/><use xlink:href="#8" y="39.078"/><use xlink:href="#31" y="41.249"/><use xlink:href="#10" y="45.591"/><use xlink:href="#32" y="47.762"/></svg><svg x="3120"><use xlink:href="#a"/><use xlink:href="#b" x="-.004" y="49.908"/><use xlink:href="#15"/><use xlink:href="#16" y="2.171"/><use xlink:href="#17" y="4.342"/><use xlink:href="#18" y="6.513"/><use xlink:href="#19" y="8.684"/><use xlink:href="#20" y="10.855"/><use xlink:href="#21" y="13.026"/><use xlink:href="#22" y="15.197"/><use xlink:href="#23" y="17.368"/><use xlink:href="#24" y="19.539"/><use xlink:href="#25" y="21.71"/><use xlink:href="#27" y="23.881"/><use xlink:href="#28" y="28.223"/><use xlink:href="#29" y="30.394"/><use xlink:href="#30" y="32.565"/><use xlink:href="#8" y="36.907"/><use xlink:href="#31" y="39.078"/><use xlink:href="#10" y="43.42"/><use xlink:href="#32" y="45.591"/><use xlink:href="#33" y="47.762"/></svg><svg x="3200"><use xlink:href="#a"/><use xlink:href="#b" x="17.996" y="49.908"/><use xlink:href="#16"/><use xlink:href="#17" y="2.171"/><use xlink:href="#18" y="4.342"/><use xlink:href="#19" y="6.513"/><use xlink:href="#20" y="8.684"/><use xlink:href="#21" y="10.855"/><use xlink:href="#22" y="13.026"/><use xlink:href="#23" y="15.197"/><use xlink:href="#24" y="17.368"/><use xlink:href="#25" y="19.539"/><use xlink:href="#27" y="21.71"/><use xlink:href="#28" y="26.052"/><use xlink:href="#29" y="28.223"/><use xlink:href="#30" y="30.394"/><use xlink:href="#8" y="34.736"/><use xlink:href="#31" y="36.907"/><use xlink:href="#10" y="41.249"/><use xlink:href="#32" y="43.42"/><use xlink:href="#33" y="45.591"/><use xlink:href="#25" y="47.762"/><use xlink:href="#26" y="49.933"/></svg><svg x="3280"><use xlink:href="#a"/><use xlink:href="#b" x="-.004" y="49.908"/><use xlink:href="#17"/><use xlink:href="#18" y="2.171"/><use xlink:href="#19" y="4.342"/><use xlink:href="#20" y="6.513"/><use xlink:href="#21" y="8.684"/><use xlink:href="#22" y="10.855"/><use xlink:href="#23" y="13.026"/><use xlink:href="#24" y="15.197"/><use xlink:href="#25" y="17.368"/><use xlink:href="#27" y="19.539"/><use xlink:href="#28" y="23.881"/><use xlink:href="#29" y="26.052"/><use xlink:href="#30" y="28.223"/><use xlink:href="#8" y="32.565"/><use xlink:href="#31" y="34.736"/><use xlink:href="#10" y="39.078"/><use xlink:href="#32" y="41.249"/><use xlink:href="#33" y="43.42"/><use xlink:href="#25" y="45.591"/><use xlink:href="#26" y="47.762"/></svg><svg x="3360"><use xlink:href="#a"/><use xlink:href="#b" x="-.004" y="49.908"/><use xlink:href="#19"/><use xlink:href="#20" y="2.171"/><use xlink:href="#21" y="4.342"/><use xlink:href="#22" y="6.513"/><use xlink:href="#23" y="8.684"/><use xlink:href="#24" y="10.855"/><use xlink:href="#25" y="13.026"/><use xlink:href="#27" y="15.197"/><use xlink:href="#28" y="19.539"/><use xlink:href="#29" y="21.71"/><use xlink:href="#30" y="23.881"/><use xlink:href="#8" y="28.223"/><use xlink:href="#31" y="30.394"/><use xlink:href="#10" y="34.736"/><use xlink:href="#32" y="36.907"/><use xlink:href="#33" y="39.078"/><use xlink:href="#25" y="41.249"/><use xlink:href="#26" y="43.42"/><use xlink:href="#28" y="47.762"/></svg><svg x="3440"><use xlink:href="#a"/><use xlink:href="#b" x="72.996" y="49.908"/><use xlink:href="#19"/><use xlink:href="#20" y="2.171"/><use xlink:href="#21" y="4.342"/><use xlink:href="#22" y="6.513"/><use xlink:href="#23" y="8.684"/><use xlink:href="#24" y="10.855"/><use xlink:href="#25" y="13.026"/><use xlink:href="#27" y="15.197"/><use xlink:href="#28" y="19.539"/><use xlink:href="#29" y="21.71"/><use xlink:href="#30" y="23.881"/><use xlink:href="#8" y="28.223"/><use xlink:href="#31" y="30.394"/><use xlink:href="#10" y="34.736"/><use xlink:href="#32" y="36.907"/><use xlink:href="#33" y="39.078"/><use xlink:href="#25" y="41.249"/><use xlink:href="#26" y="43.42"/><use xlink:href="#28" y="47.762"/><use xlink:href="#34" y="49.933"/></svg><svg x="3520"><use xlink:href="#a"/><use xlink:href="#b" x="-.004" y="49.908"/><use xlink:href="#20"/><use xlink:href="#21" y="2.171"/><use xlink:href="#22" y="4.342"/><use xlink:href="#23" y="6.513"/><use xlink:href="#24" y="8.684"/><use xlink:href="#25" y="10.855"/><use xlink:href="#27" y="13.026"/><use xlink:href="#28" y="17.368"/><use xlink:href="#29" y="19.539"/><use xlink:href="#30" y="21.71"/><use xlink:href="#8" y="26.052"/><use xlink:href="#31" y="28.223"/><use xlink:href="#10" y="32.565"/><use xlink:href="#32" y="34.736"/><use xlink:href="#33" y="36.907"/><use xlink:href="#25" y="39.078"/><use xlink:href="#26" y="41.249"/><use xlink:href="#28" y="45.591"/><use xlink:href="#34" y="47.762"/></svg><svg x="3600"><use xlink:href="#a"/><use xlink:href="#b" x="-.004" y="49.908"/><use xlink:href="#23"/><use xlink:href="#24" y="2.171"/><use xlink:href="#25" y="4.342"/><use xlink:href="#27" y="6.513"/><use xlink:href="#28" y="10.855"/><use xlink:href="#29" y="13.026"/><use xlink:href="#30" y="15.197"/><use xlink:href="#8" y="19.539"/><use xlink:href="#31" y="21.71"/><use xlink:href="#10" y="26.052"/><use xlink:href="#32" y="28.223"/><use xlink:href="#33" y="30.394"/><use xlink:href="#25" y="32.565"/><use xlink:href="#26" y="34.736"/><use xlink:href="#28" y="39.078"/><use xlink:href="#34" y="41.249"/><use xlink:href="#30" y="43.42"/><use xlink:href="#8" y="47.762"/></svg><svg x="3680"><use xlink:href="#a"/><use xlink:href="#b" x="-.004" y="49.908"/><use xlink:href="#24"/><use xlink:href="#25" y="2.171"/><use xlink:href="#27" y="4.342"/><use xlink:href="#28" y="8.684"/><use xlink:href="#29" y="10.855"/><use xlink:href="#30" y="13.026"/><use xlink:href="#8" y="17.368"/><use xlink:href="#31" y="19.539"/><use xlink:href="#10" y="23.881"/><use xlink:href="#32" y="26.052"/><use xlink:href="#33" y="28.223"/><use xlink:href="#25" y="30.394"/><use xlink:href="#26" y="32.565"/><use xlink:href="#28" y="36.907"/><use xlink:href="#34" y="39.078"/><use xlink:href="#30" y="41.249"/><use xlink:href="#8" y="45.591"/><use xlink:href="#35" y="47.762"/></svg><svg x="3760"><use xlink:href="#a"/><use xlink:href="#b" x="-.004" y="49.908"/><use xlink:href="#27"/><use xlink:href="#28" y="4.342"/><use xlink:href="#29" y="6.513"/><use xlink:href="#30" y="8.684"/><use xlink:href="#8" y="13.026"/><use xlink:href="#31" y="15.197"/><use xlink:href="#10" y="19.539"/><use xlink:href="#32" y="21.71"/><use xlink:href="#33" y="23.881"/><use xlink:href="#25" y="26.052"/><use xlink:href="#26" y="28.223"/><use xlink:href="#28" y="32.565"/><use xlink:href="#34" y="34.736"/><use xlink:href="#30" y="36.907"/><use xlink:href="#8" y="41.249"/><use xlink:href="#35" y="43.42"/><use xlink:href="#10" y="47.762"/></svg><svg x="3840"><use xlink:href="#a"/><use xlink:href="#b" x="-.004" y="49.908"/><use xlink:href="#28" y="2.171"/><use xlink:href="#29" y="4.342"/><use xlink:href="#30" y="6.513"/><use xlink:href="#8" y="10.855"/><use xlink:href="#31" y="13.026"/><use xlink:href="#10" y="17.368"/><use xlink:href="#32" y="19.539"/><use xlink:href="#33" y="21.71"/><use xlink:href="#25" y="23.881"/><use xlink:href="#26" y="26.052"/><use xlink:href="#28" y="30.394"/><use xlink:href="#34" y="32.565"/><use xlink:href="#30" y="34.736"/><use xlink:href="#8" y="39.078"/><use xlink:href="#35" y="41.249"/><use xlink:href="#10" y="45.591"/><use xlink:href="#36" y="47.762"/></svg><svg x="3920"><use xlink:href="#a"/><use xlink:href="#b" x="-.004" y="49.908"/><use xlink:href="#28"/><use xlink:href="#29" y="2.171"/><use xlink:href="#30" y="4.342"/><use xlink:href="#8" y="8.684"/><use xlink:href="#31" y="10.855"/><use xlink:href="#10" y="15.197"/><use xlink:href="#32" y="17.368"/><use xlink:href="#33" y="19.539"/><use xlink:href="#25" y="21.71"/><use xlink:href="#26" y="23.881"/><use xlink:href="#28" y="28.223"/><use xlink:href="#34" y="30.394"/><use xlink:href="#30" y="32.565"/><use xlink:href="#8" y="36.907"/><use xlink:href="#35" y="39.078"/><use xlink:href="#10" y="43.42"/><use xlink:href="#36" y="45.591"/><use xlink:href="#37" y="47.762"/></svg><svg x="4000"><use xlink:href="#a"/><use xlink:href="#b" x="37.996" y="49.908"/><use xlink:href="#29"/><use xlink:href="#30" y="2.171"/><use xlink:href="#8" y="6.513"/><use xlink:href="#31" y="8.684"/><use xlink:href="#10" y="13.026"/><use xlink:href="#32" y="15.197"/><use xlink:href="#33" y="17.368"/><use xlink:href="#25" y="19.539"/><use xlink:href="#26" y="21.71"/><use xlink:href="#28" y="26.052"/><use xlink:href="#34" y="28.223"/><use xlink:href="#30" y="30.394"/><use xlink:href="#8" y="34.736"/><use xlink:href="#35" y="36.907"/><use xlink:href="#10" y="41.249"/><use xlink:href="#36" y="43.42"/><use xlink:href="#37" y="45.591"/><use xlink:href="#38" y="47.762"/><use xlink:href="#25" y="49.933"/></svg><svg x="4080"><use xlink:href="#a"/><use xlink:href="#b" x="17.996" y="49.908"/><use xlink:href="#30"/><use xlink:href="#8" y="4.342"/><use xlink:href="#31" y="6.513"/><use xlink:href="#10" y="10.855"/><use xlink:href="#32" y="13.026"/><use xlink:href="#33" y="15.197"/><use xlink:href="#25" y="17.368"/><use xlink:href="#26" y="19.539"/><use xlink:href="#28" y="23.881"/><use xlink:href="#34" y="26.052"/><use xlink:href="#30" y="28.223"/><use xlink:href="#8" y="32.565"/><use xlink:href="#35" y="34.736"/><use xlink:href="#10" y="39.078"/><use xlink:href="#36" y="41.249"/><use xlink:href="#37" y="43.42"/><use xlink:href="#38" y="45.591"/><use xlink:href="#25" y="47.762"/><use xlink:href="#26" y="49.933"/></svg><svg x="4160"><use xlink:href="#a"/><use xlink:href="#b" x="-.004" y="49.908"/><use xlink:href="#8" y="2.171"/><use xlink:href="#31" y="4.342"/><use xlink:href="#10" y="8.684"/><use xlink:href="#32" y="10.855"/><use xlink:href="#33" y="13.026"/><use xlink:href="#25" y="15.197"/><use xlink:href="#26" y="17.368"/><use xlink:href="#28" y="21.71"/><use xlink:href="#34" y="23.881"/><use xlink:href="#30" y="26.052"/><use xlink:href="#8" y="30.394"/><use xlink:href="#35" y="32.565"/><use xlink:href="#10" y="36.907"/><use xlink:href="#36" y="39.078"/><use xlink:href="#37" y="41.249"/><use xlink:href="#38" y="43.42"/><use xlink:href="#25" y="45.591"/><use xlink:href="#26" y="47.762"/></svg><svg x="4240"><use xlink:href="#a"/><use xlink:href="#b" x="14.996" y="49.908"/><use xlink:href="#8"/><use xlink:href="#31" y="2.171"/><use xlink:href="#10" y="6.513"/><use xlink:href="#32" y="8.684"/><use xlink:href="#33" y="10.855"/><use xlink:href="#25" y="13.026"/><use xlink:href="#26" y="15.197"/><use xlink:href="#28" y="19.539"/><use xlink:href="#34" y="21.71"/><use xlink:href="#30" y="23.881"/><use xlink:href="#8" y="28.223"/><use xlink:href="#35" y="30.394"/><use xlink:href="#10" y="34.736"/><use xlink:href="#36" y="36.907"/><use xlink:href="#37" y="39.078"/><use xlink:href="#38" y="41.249"/><use xlink:href="#25" y="43.42"/><use xlink:href="#26" y="45.591"/><use xlink:href="#28" y="49.933"/></svg><svg x="4320"><use xlink:href="#a"/><use xlink:href="#b" x="-.004" y="49.908"/><use xlink:href="#31"/><use xlink:href="#10" y="4.342"/><use xlink:href="#32" y="6.513"/><use xlink:href="#33" y="8.684"/><use xlink:href="#25" y="10.855"/><use xlink:href="#26" y="13.026"/><use xlink:href="#28" y="17.368"/><use xlink:href="#34" y="19.539"/><use xlink:href="#30" y="21.71"/><use xlink:href="#8" y="26.052"/><use xlink:href="#35" y="28.223"/><use xlink:href="#10" y="32.565"/><use xlink:href="#36" y="34.736"/><use xlink:href="#37" y="36.907"/><use xlink:href="#38" y="39.078"/><use xlink:href="#25" y="41.249"/><use xlink:href="#26" y="43.42"/><use xlink:href="#28" y="47.762"/></svg><svg x="4400"><use xlink:href="#a"/><use xlink:href="#b" x="-.004" y="49.908"/><use xlink:href="#10"/><use xlink:href="#32" y="2.171"/><use xlink:href="#33" y="4.342"/><use xlink:href="#25" y="6.513"/><use xlink:href="#26" y="8.684"/><use xlink:href="#28" y="13.026"/><use xlink:href="#34" y="15.197"/><use xlink:href="#30" y="17.368"/><use xlink:href="#8" y="21.71"/><use xlink:href="#35" y="23.881"/><use xlink:href="#10" y="28.223"/><use xlink:href="#36" y="30.394"/><use xlink:href="#37" y="32.565"/><use xlink:href="#38" y="34.736"/><use xlink:href="#25" y="36.907"/><use xlink:href="#26" y="39.078"/><use xlink:href="#28" y="43.42"/><use xlink:href="#39" y="45.591"/><use xlink:href="#40" y="47.762"/></svg><svg x="4480"><use xlink:href="#a"/><use xlink:href="#b" x="-.004" y="49.908"/><use xlink:href="#25"/><use xlink:href="#26" y="2.171"/><use xlink:href="#28" y="6.513"/><use xlink:href="#34" y="8.684"/><use xlink:href="#30" y="10.855"/><use xlink:href="#8" y="15.197"/><use xlink:href="#35" y="17.368"/><use xlink:href="#10" y="21.71"/><use xlink:href="#36" y="23.881"/><use xlink:href="#37" y="26.052"/><use xlink:href="#38" y="28.223"/><use xlink:href="#25" y="30.394"/><use xlink:href="#26" y="32.565"/><use xlink:href="#28" y="36.907"/><use xlink:href="#39" y="39.078"/><use xlink:href="#40" y="41.249"/><use xlink:href="#30" y="43.42"/><use xlink:href="#41" y="47.762"/></svg><svg x="4560"><use xlink:href="#a"/><use xlink:href="#b" x="-.004" y="49.908"/><use xlink:href="#25"/><use xlink:href="#26" y="2.171"/><use xlink:href="#28" y="6.513"/><use xlink:href="#34" y="8.684"/><use xlink:href="#30" y="10.855"/><use xlink:href="#8" y="15.197"/><use xlink:href="#35" y="17.368"/><use xlink:href="#10" y="21.71"/><use xlink:href="#36" y="23.881"/><use xlink:href="#37" y="26.052"/><use xlink:href="#38" y="28.223"/><use xlink:href="#25" y="30.394"/><use xlink:href="#26" y="32.565"/><use xlink:href="#28" y="36.907"/><use xlink:href="#39" y="39.078"/><use xlink:href="#40" y="41.249"/><use xlink:href="#30" y="43.42"/><use xlink:href="#41" y="47.762"/></svg><svg x="4640"><use xlink:href="#a"/><use xlink:href="#b" x="24.996" y="49.908"/><use xlink:href="#25"/><use xlink:href="#26" y="2.171"/><use xlink:href="#28" y="6.513"/><use xlink:href="#34" y="8.684"/><use xlink:href="#30" y="10.855"/><use xlink:href="#8" y="15.197"/><use xlink:href="#35" y="17.368"/><use xlink:href="#10" y="21.71"/><use xlink:href="#36" y="23.881"/><use xlink:href="#37" y="26.052"/><use xlink:href="#38" y="28.223"/><use xlink:href="#25" y="30.394"/><use xlink:href="#26" y="32.565"/><use xlink:href="#28" y="36.907"/><use xlink:href="#39" y="39.078"/><use xlink:href="#40" y="41.249"/><use xlink:href="#30" y="43.42"/><use xlink:href="#41" y="47.762"/><use xlink:href="#1" y="49.933"/></svg><svg x="4720"><use xlink:href="#a"/><use xlink:href="#b" x="25.996" y="49.908"/><use xlink:href="#25"/><use xlink:href="#26" y="2.171"/><use xlink:href="#28" y="6.513"/><use xlink:href="#34" y="8.684"/><use xlink:href="#30" y="10.855"/><use xlink:href="#8" y="15.197"/><use xlink:href="#35" y="17.368"/><use xlink:href="#10" y="21.71"/><use xlink:href="#36" y="23.881"/><use xlink:href="#37" y="26.052"/><use xlink:href="#38" y="28.223"/><use xlink:href="#25" y="30.394"/><use xlink:href="#26" y="32.565"/><use xlink:href="#28" y="36.907"/><use xlink:href="#39" y="39.078"/><use xlink:href="#40" y="41.249"/><use xlink:href="#30" y="43.42"/><use xlink:href="#41" y="47.762"/><use xlink:href="#2" y="49.933"/></svg><svg x="4800"><use xlink:href="#a"/><use xlink:href="#b" x="26.996" y="49.908"/><use xlink:href="#25"/><use xlink:href="#26" y="2.171"/><use xlink:href="#28" y="6.513"/><use xlink:href="#34" y="8.684"/><use xlink:href="#30" y="10.855"/><use xlink:href="#8" y="15.197"/><use xlink:href="#35" y="17.368"/><use xlink:href="#10" y="21.71"/><use xlink:href="#36" y="23.881"/><use xlink:href="#37" y="26.052"/><use xlink:href="#38" y="28.223"/><use xlink:href="#25" y="30.394"/><use xlink:href="#26" y="32.565"/><use xlink:href="#28" y="36.907"/><use xlink:href="#39" y="39.078"/><use xlink:href="#40" y="41.249"/><use xlink:href="#30" y="43.42"/><use xlink:href="#41" y="47.762"/><use xlink:href="#3" y="49.933"/></svg><svg x="4880"><use xlink:href="#a"/><use xlink:href="#b" x="-.004" y="49.908"/><use xlink:href="#26"/><use xlink:href="#28" y="4.342"/><use xlink:href="#34" y="6.513"/><use xlink:href="#30" y="8.684"/><use xlink:href="#8" y="13.026"/><use xlink:href="#35" y="15.197"/><use xlink:href="#10" y="19.539"/><use xlink:href="#36" y="21.71"/><use xlink:href="#37" y="23.881"/><use xlink:href="#38" y="26.052"/><use xlink:href="#25" y="28.223"/><use xlink:href="#26" y="30.394"/><use xlink:href="#28" y="34.736"/><use xlink:href="#39" y="36.907"/><use xlink:href="#40" y="39.078"/><use xlink:href="#30" y="41.249"/><use xlink:href="#41" y="45.591"/><use xlink:href="#3" y="47.762"/></svg><svg x="4960"><use xlink:href="#a"/><use xlink:href="#b" x="-.004" y="49.908"/><use xlink:href="#28"/><use xlink:href="#34" y="2.171"/><use xlink:href="#30" y="4.342"/><use xlink:href="#8" y="8.684"/><use xlink:href="#35" y="10.855"/><use xlink:href="#10" y="15.197"/><use xlink:href="#36" y="17.368"/><use xlink:href="#37" y="19.539"/><use xlink:href="#38" y="21.71"/><use xlink:href="#25" y="23.881"/><use xlink:href="#26" y="26.052"/><use xlink:href="#28" y="30.394"/><use xlink:href="#39" y="32.565"/><use xlink:href="#40" y="34.736"/><use xlink:href="#30" y="36.907"/><use xlink:href="#41" y="41.249"/><use xlink:href="#3" y="43.42"/><use xlink:href="#42" y="45.591"/><use xlink:href="#43" y="47.762"/></svg><svg x="5040"><use xlink:href="#a"/><use xlink:href="#b" x="24.996" y="49.908"/><use xlink:href="#28"/><use xlink:href="#34" y="2.171"/><use xlink:href="#30" y="4.342"/><use xlink:href="#8" y="8.684"/><use xlink:href="#35" y="10.855"/><use xlink:href="#10" y="15.197"/><use xlink:href="#36" y="17.368"/><use xlink:href="#37" y="19.539"/><use xlink:href="#38" y="21.71"/><use xlink:href="#25" y="23.881"/><use xlink:href="#26" y="26.052"/><use xlink:href="#28" y="30.394"/><use xlink:href="#39" y="32.565"/><use xlink:href="#40" y="34.736"/><use xlink:href="#30" y="36.907"/><use xlink:href="#41" y="41.249"/><use xlink:href="#3" y="43.42"/><use xlink:href="#42" y="45.591"/><use xlink:href="#43" y="47.762"/><use xlink:href="#1" y="49.933"/></svg><svg x="5120"><use xlink:href="#a"/><use xlink:href="#b" x="-.004" y="49.908"/><use xlink:href="#34"/><use xlink:href="#30" y="2.171"/><use xlink:href="#8" y="6.513"/><use xlink:href="#35" y="8.684"/><use xlink:href="#10" y="13.026"/><use xlink:href="#36" y="15.197"/><use xlink:href="#37" y="17.368"/><use xlink:href="#38" y="19.539"/><use xlink:href="#25" y="21.71"/><use xlink:href="#26" y="23.881"/><use xlink:href="#28" y="28.223"/><use xlink:href="#39" y="30.394"/><use xlink:href="#40" y="32.565"/><use xlink:href="#30" y="34.736"/><use xlink:href="#41" y="39.078"/><use xlink:href="#3" y="41.249"/><use xlink:href="#42" y="43.42"/><use xlink:href="#43" y="45.591"/><text y="49.432" class="f">jkwill87</text><text x="8.016" y="49.432" class="g">%bmo</text><text x="12.024" y="49.432" class="h">:Downloads</text><text x="23.046" y="49.432" class="i">$</text><text x="25.05" y="49.432" class="i">exit</text></svg></svg></g></g></svg></svg>